# xmcd
#
# Track frame offsets:
#	150
#	15542
#	30702
#	45402
#	60208
#	73938
#	89527
#	104119
#	119174
#	134983
#	151684
#
# Disc length: 2210 seconds
#
# Revision: 0
# Processed by: cddbd v1.5.2PL0 Copyright (c) Steve Scherf et al.
# Submitted via: EasyCDDAExtractor 11.5.3.1
#
DISCID=9b08a00b
DTITLE=Anneli Mattila - Luottaa Huomiseen
DYEAR=2007
DGENRE=iskelmä
TTITLE0=Mennen Tullen
TTITLE1=Luottaa Huomiseen
TTITLE2=Ollaan
TTITLE3=Jos Vain Oot Ystäväin
TTITLE4=Hei Juulia
TTITLE5=Villivarsa
TTITLE6=Lailla Myskytuulien
TTITLE7=Kerran Vielä Päivä Koittaa
TTITLE8=Ovi Auki Elämälle
TTITLE9=Kesä Ikuinen
TTITLE10=Palapelini
EXTD=
EXTT0=
EXTT1=
EXTT2=
EXTT3=
EXTT4=
EXTT5=
EXTT6=
EXTT7=
EXTT8=
EXTT9=
EXTT10=
PLAYORDER=
